<svg version="1.1" id="Layer_1" xmlns="http://www.w3.org/2000/svg" xmlns:xlink="http://www.w3.org/1999/xlink" x="0px" y="0px"
	 width="100%" viewBox="0 0 2000 2000" enable-background="new 0 0 2000 2000" xml:space="preserve">
<path fill="#FFFFFF" opacity="1.000000" stroke="none" 
	d="
M1.000000,706.000000 
	C1.000000,470.666656 1.000000,235.833328 1.000000,1.000000 
	C667.666687,1.000000 1334.333374,1.000000 2001.000000,1.000000 
	C2001.000000,667.666687 2001.000000,1334.333374 2001.000000,2001.000000 
	C1334.333374,2001.000000 667.666687,2001.000000 1.000000,2001.000000 
	C1.000000,1569.500000 1.000000,1138.000000 1.000000,706.000000 
M71.700378,1246.845581 
	C71.826233,1247.499268 71.910957,1248.164062 72.083801,1248.805054 
	C91.920189,1322.373413 119.692528,1392.779541 156.114624,1459.742310 
	C197.877716,1536.524536 248.927353,1606.508545 309.835297,1669.220703 
	C398.907104,1760.930664 501.840668,1832.660767 619.310059,1883.359741 
	C718.774048,1926.287720 822.530212,1951.877808 930.553894,1959.800049 
	C985.495605,1963.829346 1040.457397,1963.159790 1095.306274,1957.777344 
	C1135.902344,1953.793701 1176.082642,1947.202271 1215.854370,1938.047607 
	C1283.576294,1922.459595 1348.894653,1899.952881 1411.719971,1870.285889 
	C1493.768311,1831.541382 1568.771729,1782.095581 1636.795288,1721.998901 
	C1687.414673,1677.278198 1733.059448,1628.018555 1773.224854,1573.727783 
	C1837.940796,1486.252441 1886.599731,1390.579956 1918.907471,1286.657104 
	C1941.465332,1214.095825 1955.359131,1139.915527 1960.208374,1064.039307 
	C1963.072388,1019.228088 1962.996338,974.431396 1959.746216,929.679138 
	C1956.234375,881.323608 1948.890015,833.504944 1938.042603,786.226807 
	C1917.102417,694.958496 1883.580078,608.573364 1837.496338,527.083557 
	C1789.099365,441.503235 1728.713501,365.334473 1656.935303,298.190369 
	C1583.335205,229.341812 1500.883057,173.523788 1409.612915,130.785690 
	C1300.189453,79.547089 1185.177246,49.778679 1064.617065,41.748142 
	C1017.173401,38.587910 969.711426,38.863205 922.298767,42.853409 
	C882.628784,46.191986 843.291199,51.807285 804.318176,59.946865 
	C721.617432,77.219055 642.561768,104.954910 567.174866,143.040787 
	C458.671722,197.857178 364.115387,270.849792 283.183441,361.550201 
	C219.814407,432.567810 168.091797,511.236755 128.346649,597.692505 
	C70.582245,723.344727 40.818302,855.289062 39.846840,993.700378 
	C39.509407,1041.777222 42.504524,1089.588257 49.287785,1137.156860 
	C54.525669,1173.888062 61.910110,1210.205566 71.700378,1246.845581 
z"/>
<path fill="#010621" opacity="1.000000" stroke="none" 
	d="
M71.545456,1246.466309 
	C61.910110,1210.205566 54.525669,1173.888062 49.287785,1137.156860 
	C42.504524,1089.588257 39.509407,1041.777222 39.846840,993.700378 
	C40.818302,855.289062 70.582245,723.344727 128.346649,597.692505 
	C168.091797,511.236755 219.814407,432.567810 283.183441,361.550201 
	C364.115387,270.849792 458.671722,197.857178 567.174866,143.040787 
	C642.561768,104.954910 721.617432,77.219055 804.318176,59.946865 
	C843.291199,51.807285 882.628784,46.191986 922.298767,42.853409 
	C969.711426,38.863205 1017.173401,38.587910 1064.617065,41.748142 
	C1185.177246,49.778679 1300.189453,79.547089 1409.612915,130.785690 
	C1500.883057,173.523788 1583.335205,229.341812 1656.935303,298.190369 
	C1728.713501,365.334473 1789.099365,441.503235 1837.496338,527.083557 
	C1883.580078,608.573364 1917.102417,694.958496 1938.042603,786.226807 
	C1948.890015,833.504944 1956.234375,881.323608 1959.746216,929.679138 
	C1962.996338,974.431396 1963.072388,1019.228088 1960.208374,1064.039307 
	C1955.359131,1139.915527 1941.465332,1214.095825 1918.907471,1286.657104 
	C1886.599731,1390.579956 1837.940796,1486.252441 1773.224854,1573.727783 
	C1733.059448,1628.018555 1687.414673,1677.278198 1636.795288,1721.998901 
	C1568.771729,1782.095581 1493.768311,1831.541382 1411.719971,1870.285889 
	C1348.894653,1899.952881 1283.576294,1922.459595 1215.854370,1938.047607 
	C1176.082642,1947.202271 1135.902344,1953.793701 1095.306274,1957.777344 
	C1040.457397,1963.159790 985.495605,1963.829346 930.553894,1959.800049 
	C822.530212,1951.877808 718.774048,1926.287720 619.310059,1883.359741 
	C501.840668,1832.660767 398.907104,1760.930664 309.835297,1669.220703 
	C248.927353,1606.508545 197.877716,1536.524536 156.114624,1459.742310 
	C119.692528,1392.779541 91.920189,1322.373413 72.083801,1248.805054 
	C71.910957,1248.164062 71.826233,1247.499268 71.545456,1246.466309 
M212.710342,611.221924 
	C193.532852,649.928040 177.361816,689.844238 164.067734,730.951904 
	C139.590469,806.639648 125.553421,884.230835 122.352112,963.666443 
	C120.276482,1015.170044 122.190300,1066.597046 129.214722,1117.743774 
	C136.728210,1172.451660 149.016159,1226.064575 166.429932,1278.473022 
	C190.664993,1351.410767 224.054749,1419.951904 266.143158,1484.225708 
	C308.271240,1548.560059 358.203949,1606.226318 415.642944,1657.345337 
	C465.234894,1701.480591 519.081238,1739.669922 577.269287,1771.656250 
	C652.157898,1812.822998 731.360657,1842.545410 814.921997,1860.525269 
	C863.850403,1871.052979 913.334045,1877.804443 963.337708,1879.657227 
	C1022.385010,1881.844971 1081.181396,1878.925537 1139.626953,1869.309937 
	C1187.348389,1861.458618 1234.221802,1850.515747 1280.035889,1834.986816 
	C1335.546509,1816.171143 1388.883545,1792.622925 1439.654663,1763.226196 
	C1499.757568,1728.426270 1555.216309,1687.419189 1605.619263,1639.676147 
	C1661.546021,1586.700439 1709.860596,1527.493408 1750.083984,1461.712646 
	C1782.340454,1408.960815 1809.076538,1353.589844 1829.731934,1295.313477 
	C1847.673706,1244.693359 1860.899780,1192.869141 1869.387207,1139.808960 
	C1875.077026,1104.238770 1878.886841,1068.482422 1879.815552,1032.506836 
	C1880.731445,997.035828 1881.226196,961.481201 1877.008301,926.159119 
	C1873.320435,895.276855 1869.702515,864.322205 1864.185059,833.736572 
	C1854.500854,780.053284 1838.806885,727.969727 1818.673828,677.245972 
	C1798.158813,625.559937 1773.211670,576.097595 1743.335693,529.216003 
	C1702.209351,464.680298 1653.550659,406.389862 1597.188354,354.526733 
	C1558.092041,318.551025 1516.223755,286.186005 1471.392212,257.768311 
	C1413.213989,220.890503 1351.415894,191.309113 1286.229248,169.031097 
	C1205.374512,141.398361 1122.177490,125.646538 1036.797729,122.281082 
	C991.478577,120.494713 946.177185,121.912636 901.059509,127.156586 
	C849.517395,133.147232 798.875366,143.634354 749.146057,158.326218 
	C682.747253,177.942871 619.771484,205.607086 559.816101,240.199829 
	C499.786224,274.835541 444.875275,316.315338 394.671722,364.026154 
	C319.536224,435.430939 258.995972,517.633118 212.710342,611.221924 
z"/>
<path fill="#5170FE" opacity="1.000000" stroke="none" 
	d="
M212.848892,610.874023 
	C258.995972,517.633118 319.536224,435.430939 394.671722,364.026154 
	C444.875275,316.315338 499.786224,274.835541 559.816101,240.199829 
	C619.771484,205.607086 682.747253,177.942871 749.146057,158.326218 
	C798.875366,143.634354 849.517395,133.147232 901.059509,127.156586 
	C946.177185,121.912636 991.478577,120.494713 1036.797729,122.281082 
	C1122.177490,125.646538 1205.374512,141.398361 1286.229248,169.031097 
	C1351.415894,191.309113 1413.213989,220.890503 1471.392212,257.768311 
	C1516.223755,286.186005 1558.092041,318.551025 1597.188354,354.526733 
	C1653.550659,406.389862 1702.209351,464.680298 1743.335693,529.216003 
	C1773.211670,576.097595 1798.158813,625.559937 1818.673828,677.245972 
	C1838.806885,727.969727 1854.500854,780.053284 1864.185059,833.736572 
	C1869.702515,864.322205 1873.320435,895.276855 1877.008301,926.159119 
	C1881.226196,961.481201 1880.731445,997.035828 1879.815552,1032.506836 
	C1878.886841,1068.482422 1875.077026,1104.238770 1869.387207,1139.808960 
	C1860.899780,1192.869141 1847.673706,1244.693359 1829.731934,1295.313477 
	C1809.076538,1353.589844 1782.340454,1408.960815 1750.083984,1461.712646 
	C1709.860596,1527.493408 1661.546021,1586.700439 1605.619263,1639.676147 
	C1555.216309,1687.419189 1499.757568,1728.426270 1439.654663,1763.226196 
	C1388.883545,1792.622925 1335.546509,1816.171143 1280.035889,1834.986816 
	C1234.221802,1850.515747 1187.348389,1861.458618 1139.626953,1869.309937 
	C1081.181396,1878.925537 1022.385010,1881.844971 963.337708,1879.657227 
	C913.334045,1877.804443 863.850403,1871.052979 814.921997,1860.525269 
	C731.360657,1842.545410 652.157898,1812.822998 577.269287,1771.656250 
	C519.081238,1739.669922 465.234894,1701.480591 415.642944,1657.345337 
	C358.203949,1606.226318 308.271240,1548.560059 266.143158,1484.225708 
	C224.054749,1419.951904 190.664993,1351.410767 166.429932,1278.473022 
	C149.016159,1226.064575 136.728210,1172.451660 129.214722,1117.743774 
	C122.190300,1066.597046 120.276482,1015.170044 122.352112,963.666443 
	C125.553421,884.230835 139.590469,806.639648 164.067734,730.951904 
	C177.361816,689.844238 193.532852,649.928040 212.848892,610.874023 
M1199.964966,287.460388 
	C1184.619995,283.737335 1169.334839,279.743622 1153.918701,276.343506 
	C1112.517334,267.212189 1070.574097,262.261505 1028.207886,261.030640 
	C989.866760,259.916718 951.569885,260.853516 913.451782,265.350189 
	C871.898621,270.252075 831.072998,278.914429 790.918274,290.634766 
	C726.099548,309.553955 665.320312,337.438843 608.030884,373.125671 
	C534.583069,418.877899 471.340454,476.002380 418.034302,544.030090 
	C356.256256,622.869385 312.274994,710.748230 285.987793,807.454346 
	C272.093109,858.570435 263.598419,910.598022 261.367310,963.464050 
	C260.210358,990.878296 260.420410,1018.478638 262.198303,1045.852905 
	C264.050079,1074.364258 267.390045,1102.895386 272.090790,1131.082275 
	C283.805176,1201.325195 306.402313,1268.179565 338.269806,1331.842896 
	C378.266815,1411.746826 430.911224,1482.187134 496.357941,1543.137817 
	C543.327942,1586.881226 594.957886,1623.988403 651.569946,1654.129883 
	C716.034119,1688.452148 783.944641,1713.146118 855.702271,1727.355103 
	C918.821655,1739.853516 982.415649,1743.612915 1046.565430,1740.162231 
	C1084.895508,1738.100464 1122.762695,1732.623535 1160.219482,1724.523560 
	C1214.101196,1712.871948 1265.965088,1695.075562 1315.820801,1671.522095 
	C1378.545654,1641.888794 1436.222778,1604.558960 1488.421997,1558.752563 
	C1538.177002,1515.091064 1581.437012,1465.818726 1618.082397,1410.707275 
	C1662.338013,1344.150879 1694.741699,1272.222778 1715.838623,1195.170898 
	C1729.914307,1143.763062 1738.399292,1091.389282 1740.715698,1038.187622 
	C1742.892456,988.197571 1740.899902,938.320984 1733.170166,888.736267 
	C1721.258301,812.322693 1698.360840,739.440491 1663.784912,670.281982 
	C1637.384888,617.476440 1605.255981,568.408997 1567.074585,523.308228 
	C1524.964600,473.567078 1477.469116,429.742157 1423.809937,392.744690 
	C1355.256348,345.477600 1281.189087,309.788422 1199.964966,287.460388 
z"/>
<path fill="#000620" opacity="1.000000" stroke="none" 
	d="
M1200.345459,287.609863 
	C1281.189087,309.788422 1355.256348,345.477600 1423.809937,392.744690 
	C1477.469116,429.742157 1524.964600,473.567078 1567.074585,523.308228 
	C1605.255981,568.408997 1637.384888,617.476440 1663.784912,670.281982 
	C1698.360840,739.440491 1721.258301,812.322693 1733.170166,888.736267 
	C1740.899902,938.320984 1742.892456,988.197571 1740.715698,1038.187622 
	C1738.399292,1091.389282 1729.914307,1143.763062 1715.838623,1195.170898 
	C1694.741699,1272.222778 1662.338013,1344.150879 1618.082397,1410.707275 
	C1581.437012,1465.818726 1538.177002,1515.091064 1488.421997,1558.752563 
	C1436.222778,1604.558960 1378.545654,1641.888794 1315.820801,1671.522095 
	C1265.965088,1695.075562 1214.101196,1712.871948 1160.219482,1724.523560 
	C1122.762695,1732.623535 1084.895508,1738.100464 1046.565430,1740.162231 
	C982.415649,1743.612915 918.821655,1739.853516 855.702271,1727.355103 
	C783.944641,1713.146118 716.034119,1688.452148 651.569946,1654.129883 
	C594.957886,1623.988403 543.327942,1586.881226 496.357941,1543.137817 
	C430.911224,1482.187134 378.266815,1411.746826 338.269806,1331.842896 
	C306.402313,1268.179565 283.805176,1201.325195 272.090790,1131.082275 
	C267.390045,1102.895386 264.050079,1074.364258 262.198303,1045.852905 
	C260.420410,1018.478638 260.210358,990.878296 261.367310,963.464050 
	C263.598419,910.598022 272.093109,858.570435 285.987793,807.454346 
	C312.274994,710.748230 356.256256,622.869385 418.034302,544.030090 
	C471.340454,476.002380 534.583069,418.877899 608.030884,373.125671 
	C665.320312,337.438843 726.099548,309.553955 790.918274,290.634766 
	C831.072998,278.914429 871.898621,270.252075 913.451782,265.350189 
	C951.569885,260.853516 989.866760,259.916718 1028.207886,261.030640 
	C1070.574097,262.261505 1112.517334,267.212189 1153.918701,276.343506 
	C1169.334839,279.743622 1184.619995,283.737335 1200.345459,287.609863 
M1215.930298,524.815186 
	C1215.930298,523.055908 1215.930298,521.296631 1215.930298,518.794739 
	C984.119446,651.788879 752.965027,784.406433 520.992310,917.493408 
	C614.026611,946.506836 706.091675,975.217957 798.569458,1004.057861 
	C734.216980,1103.712036 670.196472,1202.852173 606.007935,1302.252563 
	C651.189026,1331.832642 696.044434,1361.199463 741.150330,1390.730225 
	C805.162109,1291.588623 868.812866,1193.006104 932.874207,1093.787842 
	C996.875610,1166.873169 1060.548462,1239.583252 1124.806641,1312.962036 
	C1128.278320,1284.176147 1131.641357,1256.311768 1134.998901,1228.446655 
	C1138.522705,1199.202148 1142.041260,1169.957031 1145.562500,1140.712158 
	C1149.024170,1111.963135 1152.498413,1083.215576 1155.944702,1054.464722 
	C1159.450928,1025.213257 1162.911743,995.956360 1166.426025,966.705872 
	C1169.920288,937.622314 1173.465210,908.544922 1176.970825,879.462769 
	C1180.496460,850.215332 1184.000854,820.965393 1187.515015,791.716614 
	C1191.346802,759.824829 1195.182861,727.933533 1199.009644,696.041138 
	C1202.479980,667.120667 1205.968750,638.202393 1209.397339,609.276978 
	C1212.687622,581.519714 1217.369995,553.868591 1215.930298,524.815186 
M1413.908081,1491.426636 
	C1422.740234,1486.502197 1432.175293,1482.408325 1440.300415,1476.510132 
	C1476.374268,1450.324097 1491.836182,1400.699829 1478.274902,1358.377563 
	C1462.185913,1308.166626 1412.508057,1275.537598 1358.362305,1284.108887 
	C1323.068604,1289.695923 1296.318726,1308.721558 1279.680420,1340.237305 
	C1253.765015,1389.324829 1268.404175,1448.088623 1314.136963,1479.594238 
	C1344.786865,1500.709229 1378.240356,1503.427856 1413.908081,1491.426636 
z"/>
<path fill="#FFFFFF" opacity="1.000000" stroke="none" 
	d="
M1215.932495,525.277832 
	C1217.369995,553.868591 1212.687622,581.519714 1209.397339,609.276978 
	C1205.968750,638.202393 1202.479980,667.120667 1199.009644,696.041138 
	C1195.182861,727.933533 1191.346802,759.824829 1187.515015,791.716614 
	C1184.000854,820.965393 1180.496460,850.215332 1176.970825,879.462769 
	C1173.465210,908.544922 1169.920288,937.622314 1166.426025,966.705872 
	C1162.911743,995.956360 1159.450928,1025.213257 1155.944702,1054.464722 
	C1152.498413,1083.215576 1149.024170,1111.963135 1145.562500,1140.712158 
	C1142.041260,1169.957031 1138.522705,1199.202148 1134.998901,1228.446655 
	C1131.641357,1256.311768 1128.278320,1284.176147 1124.806641,1312.962036 
	C1060.548462,1239.583252 996.875610,1166.873169 932.874207,1093.787842 
	C868.812866,1193.006104 805.162109,1291.588623 741.150330,1390.730225 
	C696.044434,1361.199463 651.189026,1331.832642 606.007935,1302.252563 
	C670.196472,1202.852173 734.216980,1103.712036 798.569458,1004.057861 
	C706.091675,975.217957 614.026611,946.506836 520.992310,917.493408 
	C752.965027,784.406433 984.119446,651.788879 1215.930298,518.794739 
	C1215.930298,521.296631 1215.930298,523.055908 1215.932495,525.277832 
z"/>
<path fill="#03BD62" opacity="1.000000" stroke="none" 
	d="
M1413.548340,1491.580322 
	C1378.240356,1503.427856 1344.786865,1500.709229 1314.136963,1479.594238 
	C1268.404175,1448.088623 1253.765015,1389.324829 1279.680420,1340.237305 
	C1296.318726,1308.721558 1323.068604,1289.695923 1358.362305,1284.108887 
	C1412.508057,1275.537598 1462.185913,1308.166626 1478.274902,1358.377563 
	C1491.836182,1400.699829 1476.374268,1450.324097 1440.300415,1476.510132 
	C1432.175293,1482.408325 1422.740234,1486.502197 1413.548340,1491.580322 
M1382.005981,1315.219238 
	C1373.921509,1315.839600 1365.662109,1315.616089 1357.786987,1317.247192 
	C1338.320190,1321.279175 1323.325684,1332.572144 1312.216431,1348.747803 
	C1303.009644,1362.153320 1299.322388,1377.234131 1299.822388,1393.620972 
	C1300.398926,1412.515381 1307.284668,1428.663208 1319.921997,1442.215942 
	C1332.057739,1455.230835 1347.097168,1463.065552 1365.078857,1465.325195 
	C1387.347900,1468.123535 1407.316528,1462.579590 1424.058716,1448.159668 
	C1443.609253,1431.320923 1452.657959,1409.616821 1450.166870,1383.377441 
	C1448.475464,1365.560059 1441.433716,1350.425293 1429.093262,1337.733887 
	C1416.447388,1324.728516 1400.858276,1317.540771 1382.005981,1315.219238 
z"/>
<path fill="#7DD957" opacity="1.000000" stroke="none" 
	d="
M1382.441650,1315.338989 
	C1400.858276,1317.540771 1416.447388,1324.728516 1429.093262,1337.733887 
	C1441.433716,1350.425293 1448.475464,1365.560059 1450.166870,1383.377441 
	C1452.657959,1409.616821 1443.609253,1431.320923 1424.058716,1448.159668 
	C1407.316528,1462.579590 1387.347900,1468.123535 1365.078857,1465.325195 
	C1347.097168,1463.065552 1332.057739,1455.230835 1319.921997,1442.215942 
	C1307.284668,1428.663208 1300.398926,1412.515381 1299.822388,1393.620972 
	C1299.322388,1377.234131 1303.009644,1362.153320 1312.216431,1348.747803 
	C1323.325684,1332.572144 1338.320190,1321.279175 1357.786987,1317.247192 
	C1365.662109,1315.616089 1373.921509,1315.839600 1382.441650,1315.338989 
z"/>
</svg>